<svg width="80" height="90" viewBox="0 0 80 90" fill="none" xmlns="http://www.w3.org/2000/svg">
<path d="M75.8 41.3H69.5C67.9 34.9 61.9 30 55 30C48.1 30 42.2 34.8 40.5 41.3H4.2C2.1 41.3 0.5 42.9 0.5 45C0.5 47.1 2.1 48.7 4.2 48.7H40.6C42.2 55.1 48.2 60 55 60C61.8 60 67.8 55.2 69.5 48.7H75.8C77.9 48.7 79.5 47.1 79.5 45C79.5 42.9 77.8 41.3 75.8 41.3ZM55 53.9C50.1 53.9 46.1 49.9 46.1 45C46.1 40.1 50.1 36.1 55 36.1C59.9 36.1 63.9 40.1 63.9 45C63.9 49.9 60 53.9 55 53.9Z" fill="#4E54C8"/>
<path d="M4.2 18.9H10.8C12.4 25.3 18.4 30.2 25.3 30.2C32.2 30.2 38.1 25.4 39.8 18.9H75.9C78 18.9 79.6 17.3 79.6 15.2C79.6 13.1 78 11.5 75.9 11.5H39.7C38.1 5.1 32.1 0.200001 25.2 0.200001C18.3 0.200001 12.4 4.9 10.8 11.5H4.2C2.1 11.5 0.5 13.1 0.5 15.2C0.5 17.3 2.2 18.9 4.2 18.9ZM25.2 6.3C30.1 6.3 34.1 10.3 34.1 15.2C34.1 20.1 30.1 24.1 25.2 24.1C20.3 24.1 16.3 20.1 16.3 15.2C16.3 10.3 20.3 6.3 25.2 6.3Z" fill="#4E54C8"/>
<path d="M75.8 71.1H39.7C38.1 64.7 32.1 59.8 25.2 59.8C18.3 59.8 12.4 64.6 10.7 71.1H4.10003C2.00003 71.1 0.400024 72.7 0.400024 74.8C0.400024 76.9 2.00003 78.5 4.10003 78.5H10.7C12.3 84.9 18.3 89.8 25.2 89.8C32.1 89.8 38 85 39.7 78.5H75.8C77.9 78.5 79.5 76.9 79.5 74.8C79.5 72.7 77.8 71.1 75.8 71.1ZM25.2 83.7C20.3 83.7 16.3 79.7 16.3 74.8C16.3 69.9 20.3 65.9 25.2 65.9C30.1 65.9 34.1 69.9 34.1 74.8C34.1 79.7 30.2 83.7 25.2 83.7Z" fill="#4E54C8"/>
</svg>
