<svg width="92" height="82" viewBox="0 0 92 82" fill="none" xmlns="http://www.w3.org/2000/svg">
<path d="M3.00037 6.10352e-05C1.34347 6.10352e-05 0.000366211 1.34321 0.000366211 3.00006C0.000366211 4.65691 1.34347 6.00006 3.00037 6.00006H14.9692C19.9344 18.2976 24.8251 30.6175 29.7504 42.9375L25.2192 53.8437C24.8396 54.753 24.9464 55.8494 25.4943 56.6683C26.0423 57.4872 27.0151 58.0041 28.0004 58H78.0004C79.5853 58.022 81.0431 56.5851 81.0431 55C81.0431 53.4149 79.5853 51.9776 78.0004 52H32.5004L35.0942 45.8125L83.2504 41.9687C84.5109 41.8697 85.6519 40.8878 85.9379 39.6562L91.9379 13.6563C92.3303 11.9051 90.795 9.99421 89.0004 10.0001H23.0316L19.7816 1.87506C19.3366 0.775241 18.1868 9.10352e-05 17.0004 6.10352e-05H3.00037ZM25.4379 16.0001H44.0004V25.0001H29.0316L25.4379 16.0001ZM50.0004 16.0001H62.0004V25.0001H50.0004V16.0001ZM68.0004 16.0001H85.2192L83.1566 25.0001H68.0004V16.0001ZM31.4379 31.0001H44.0004V39.0937L34.9692 39.8125L31.4379 31.0001ZM50.0004 31.0001H62.0004V37.6562L50.0004 38.6251V31.0001ZM68.0004 31.0001H81.7504L80.5629 36.1876L68.0004 37.1876V31.0001ZM39.0004 61.9999C33.5131 61.9999 29.0004 66.5125 29.0004 71.9999C29.0004 77.4872 33.5131 81.9999 39.0004 81.9999C44.4877 81.9999 49.0004 77.4872 49.0004 71.9999C49.0004 66.5126 44.4877 61.9999 39.0004 61.9999V61.9999ZM67.0004 61.9999C61.5131 61.9999 57.0004 66.5126 57.0004 71.9999C57.0004 77.4872 61.5131 81.9999 67.0004 81.9999C72.4877 81.9999 77.0004 77.4872 77.0004 71.9999C77.0004 66.5125 72.4877 61.9999 67.0004 61.9999V61.9999ZM39.0004 67.9999C41.2451 67.9999 43.0004 69.7552 43.0004 71.9999C43.0004 74.2445 41.2451 75.9999 39.0004 75.9999C36.7559 75.9999 35.0004 74.2445 35.0004 71.9999C35.0004 69.7552 36.7559 67.9999 39.0004 67.9999ZM67.0004 67.9999C69.2449 67.9999 71.0004 69.7552 71.0004 71.9999C71.0004 74.2445 69.2449 75.9999 67.0004 75.9999C64.7557 75.9999 63.0004 74.2445 63.0004 71.9999C63.0004 69.7552 64.7557 67.9999 67.0004 67.9999Z" fill="#4E54C8"/>
</svg>
