<svg width="30" height="30" viewBox="0 0 30 30" fill="none" xmlns="http://www.w3.org/2000/svg">
<path d="M29 28H3C2.448 28 2 27.551 2 27V1C2 0.448 1.553 0 1 0C0.447 0 0 0.448 0 1V27C0 28.654 1.346 30 3 30H29C29.553 30 30 29.552 30 29C30 28.448 29.553 28 29 28Z" fill="#4E54C8"/>
<path d="M5 26H8C8.553 26 9 25.552 9 25V19C9 18.448 8.553 18 8 18H5C4.447 18 4 18.448 4 19V25C4 25.552 4.447 26 5 26Z" fill="#4E54C8"/>
<path d="M19 26H22C22.553 26 23 25.552 23 25V7C23 6.448 22.553 6 22 6H19C18.447 6 18 6.448 18 7V25C18 25.552 18.447 26 19 26Z" fill="#4E54C8"/>
<path d="M12 26H15C15.553 26 16 25.552 16 25V13C16 12.448 15.553 12 15 12H12C11.447 12 11 12.448 11 13V25C11 25.552 11.447 26 12 26Z" fill="#4E54C8"/>
<path d="M29 0H26C25.447 0 25 0.448 25 1V25C25 25.552 25.447 26 26 26H29C29.553 26 30 25.552 30 25V1C30 0.448 29.553 0 29 0Z" fill="#4E54C8"/>
</svg>
