<svg width="124" height="28" viewBox="0 0 124 28" fill="none" xmlns="http://www.w3.org/2000/svg">
<g clip-path="url(#clip0)">
<path d="M26.73 9.71002C27.09 9.71002 27.21 9.84002 27.21 10.19V18.11H31.28C31.63 18.11 31.76 18.24 31.76 18.59V19.29C31.76 19.64 31.63 19.77 31.28 19.77H25.92C25.57 19.77 25.43 19.64 25.43 19.29V10.19C25.43 9.84002 25.57 9.71002 25.92 9.71002H26.73Z" fill="#2A2D34"/>
<path d="M35.31 13.2C35.31 10.89 36.77 9.5 39.31 9.5C41.85 9.5 43.31 10.89 43.31 13.2V16.28C43.31 18.59 41.84 19.98 39.31 19.98C36.78 19.98 35.31 18.59 35.31 16.28V13.2ZM41.63 13.2C41.63 11.9 40.82 11.2 39.36 11.2C37.9 11.2 37.1 11.91 37.1 13.2V16.3C37.1 17.61 37.9 18.3 39.36 18.3C40.82 18.3 41.63 17.58 41.63 16.3V13.2Z" fill="#2A2D34"/>
<path d="M55.22 14.26C55.61 14.26 55.7 14.39 55.7 14.74V16.64C55.7106 17.0876 55.6209 17.5318 55.4375 17.9402C55.2541 18.3485 54.9816 18.7107 54.64 19C53.7917 19.6755 52.7221 20.0107 51.64 19.94C49.05 19.94 47.64 18.55 47.64 16.24V13.14C47.64 10.86 49.1 9.46002 51.64 9.46002C53.64 9.46002 54.94 10.25 55.49 11.83C55.5208 11.8894 55.5373 11.9551 55.5382 12.022C55.5391 12.0888 55.5244 12.155 55.4953 12.2152C55.4662 12.2754 55.4234 12.3279 55.3704 12.3687C55.3174 12.4095 55.2557 12.4373 55.19 12.45L54.41 12.72C54.07 12.84 53.93 12.77 53.81 12.42C53.6444 11.9929 53.3411 11.6332 52.9481 11.3977C52.555 11.1623 52.0948 11.0646 51.64 11.12C50.17 11.12 49.37 11.83 49.37 13.12V16.3C49.37 17.61 50.18 18.3 51.64 18.3C53.1 18.3 54 17.63 54 16.65V15.91H51.83C51.47 15.91 51.34 15.77 51.34 15.42V14.74C51.34 14.39 51.47 14.26 51.83 14.26H55.22Z" fill="#2A2D34"/>
<path d="M59.83 13.2C59.83 10.89 61.29 9.5 63.83 9.5C66.37 9.5 67.83 10.89 67.83 13.2V16.28C67.83 18.59 66.36 19.98 63.83 19.98C61.3 19.98 59.83 18.59 59.83 16.28V13.2ZM66.14 13.2C66.14 11.9 65.33 11.2 63.88 11.2C62.43 11.2 61.61 11.91 61.61 13.2V16.3C61.61 17.61 62.42 18.3 63.88 18.3C65.34 18.3 66.14 17.58 66.14 16.3V13.2Z" fill="#2A2D34"/>
<path d="M72.54 10C72.54 9.78002 72.61 9.71002 72.83 9.71002H73.29C73.51 9.71002 73.56 9.78002 73.56 10V19.48C73.56 19.7 73.56 19.77 73.29 19.77H72.83C72.61 19.77 72.54 19.7 72.54 19.48V10Z" fill="#2A2D34"/>
<path d="M82.67 9.71002C83.5028 9.71002 84.3015 10.0408 84.8903 10.6297C85.4792 11.2186 85.81 12.0172 85.81 12.85C85.81 13.6828 85.4792 14.4815 84.8903 15.0703C84.3015 15.6592 83.5028 15.99 82.67 15.99H79.67V19.48C79.67 19.7 79.62 19.77 79.41 19.77H78.94C78.73 19.77 78.65 19.7 78.65 19.48V10C78.65 9.78002 78.73 9.71002 78.94 9.71002H82.67ZM82.58 15C82.8663 15 83.1498 14.9436 83.4143 14.8341C83.6788 14.7245 83.9191 14.5639 84.1215 14.3615C84.3239 14.1591 84.4845 13.9188 84.5941 13.6543C84.7036 13.3898 84.76 13.1063 84.76 12.82C84.76 12.5337 84.7036 12.2503 84.5941 11.9858C84.4845 11.7213 84.3239 11.481 84.1215 11.2785C83.9191 11.0761 83.6788 10.9155 83.4143 10.806C83.1498 10.6964 82.8663 10.64 82.58 10.64H79.58V15H82.58Z" fill="#2A2D34"/>
<path d="M93.62 9.51001C94.3921 9.4248 95.171 9.5909 95.8412 9.98363C96.5114 10.3764 97.037 10.9748 97.34 11.69C97.42 11.85 97.34 11.98 97.18 12.06L96.74 12.26C96.56 12.33 96.49 12.32 96.38 12.13C96.1534 11.5992 95.7639 11.1542 95.2678 10.8594C94.7716 10.5646 94.1945 10.4352 93.62 10.49C91.93 10.49 91.01 11.16 91.01 12.36C91.0002 12.7267 91.1234 13.0847 91.3568 13.3677C91.5902 13.6507 91.9181 13.8398 92.28 13.9C92.8178 14.0754 93.3755 14.1829 93.94 14.22C94.6233 14.2565 95.2974 14.3946 95.94 14.63C96.4326 14.7859 96.8566 15.1065 97.1407 15.5381C97.4247 15.9697 97.5516 16.4859 97.5 17C97.5 18.87 96.14 20 93.64 20C92.82 20.0938 91.9926 19.9038 91.2957 19.4616C90.5988 19.0195 90.0744 18.3519 89.81 17.57C89.7924 17.5344 89.7828 17.4953 89.782 17.4555C89.7813 17.4157 89.7893 17.3763 89.8055 17.34C89.8218 17.3037 89.8458 17.2714 89.876 17.2455C89.9061 17.2196 89.9417 17.2006 89.98 17.19L90.42 17.03C90.4547 17.0159 90.4919 17.0091 90.5293 17.0101C90.5667 17.0111 90.6035 17.0198 90.6374 17.0358C90.6713 17.0518 90.7014 17.0747 90.726 17.1029C90.7505 17.1312 90.7689 17.1643 90.78 17.2C91.0037 17.7649 91.4015 18.2439 91.9157 18.5676C92.43 18.8912 93.0339 19.0427 93.64 19C95.53 19 96.46 18.34 96.46 17C96.4776 16.6478 96.3697 16.3007 96.1554 16.0205C95.9412 15.7404 95.6345 15.5453 95.29 15.47C94.7726 15.3157 94.239 15.2217 93.7 15.19L92.62 15.05C92.282 14.9783 91.9482 14.8881 91.62 14.78C91.2958 14.6821 90.9936 14.5225 90.73 14.31C90.4647 14.0698 90.2556 13.7742 90.1173 13.4441C89.9791 13.114 89.9151 12.7576 89.93 12.4C90 10.65 91.31 9.51001 93.62 9.51001Z" fill="#2A2D34"/>
<path d="M102.89 16.35C102.932 17.0572 103.243 17.7215 103.759 18.2072C104.275 18.6929 104.957 18.9634 105.665 18.9634C106.373 18.9634 107.055 18.6929 107.571 18.2072C108.087 17.7215 108.398 17.0572 108.44 16.35V10C108.44 9.78002 108.51 9.71002 108.73 9.71002H109.19C109.41 9.71002 109.48 9.78002 109.48 10V16.34C109.48 18.61 108.14 19.98 105.67 19.98C103.2 19.98 101.86 18.61 101.86 16.34V10C101.86 9.78002 101.93 9.71002 102.14 9.71002H102.61C102.82 9.71002 102.89 9.78002 102.89 10V16.35Z" fill="#2A2D34"/>
<path d="M123.28 9.70998C123.5 9.70998 123.57 9.77998 123.57 9.99998V19.48C123.57 19.7 123.5 19.77 123.28 19.77H122.86C122.65 19.77 122.58 19.7 122.58 19.48V13.71C122.58 12.8704 122.637 12.0318 122.75 11.2H122.69C122.378 11.9607 122.013 12.6991 121.6 13.41L119.45 17.2C119.424 17.2657 119.378 17.322 119.319 17.3612C119.26 17.4005 119.191 17.421 119.12 17.42H118.84C118.768 17.4203 118.698 17.3997 118.637 17.3606C118.577 17.3216 118.529 17.2657 118.5 17.2L116.32 13.37C115.933 12.6692 115.599 11.9405 115.32 11.19H115.26C115.362 12.0295 115.416 12.8743 115.42 13.72V19.48C115.42 19.7 115.35 19.77 115.13 19.77H114.74C114.52 19.77 114.45 19.7 114.45 19.48V9.99998C114.45 9.77998 114.52 9.70998 114.74 9.70998H115.1C115.182 9.70231 115.265 9.72031 115.337 9.76149C115.408 9.80268 115.465 9.86502 115.5 9.93998L119 16.16L122.48 9.99998C122.59 9.78998 122.65 9.75998 122.87 9.75998L123.28 9.70998Z" fill="#2A2D34"/>
<path d="M8.94002 17.55V24.78C8.94002 25.0572 8.82992 25.323 8.63395 25.5189C8.43797 25.7149 8.17217 25.825 7.89502 25.825C7.61787 25.825 7.35207 25.7149 7.1561 25.5189C6.96012 25.323 6.85002 25.0572 6.85002 24.78V17.56C7.14098 17.7725 7.48985 17.8911 7.85002 17.9C8.24266 17.9112 8.62731 17.7877 8.94002 17.55V17.55ZM17.84 15.46C17.5748 15.46 17.3205 15.5654 17.1329 15.7529C16.9454 15.9404 16.84 16.1948 16.84 16.46V17.72C16.84 17.9972 16.9501 18.263 17.1461 18.4589C17.3421 18.6549 17.6079 18.765 17.885 18.765C18.1622 18.765 18.428 18.6549 18.624 18.4589C18.8199 18.263 18.93 17.9972 18.93 17.72V16.51C18.9378 16.3666 18.9146 16.2232 18.862 16.0896C18.8094 15.956 18.7287 15.8352 18.6253 15.7356C18.5218 15.636 18.3982 15.5598 18.2627 15.5123C18.1272 15.4647 17.983 15.4469 17.84 15.46V15.46ZM4.58002 20.29C4.22019 20.2792 3.87186 20.1608 3.58002 19.95V27.2C3.58002 27.4785 3.69065 27.7456 3.88756 27.9425C4.08447 28.1394 4.35154 28.25 4.63002 28.25C4.9085 28.25 5.17557 28.1394 5.37249 27.9425C5.5694 27.7456 5.68002 27.4785 5.68002 27.2V20C5.35348 20.2111 4.96819 20.3127 4.58002 20.29V20.29ZM14.58 13.29C14.4446 13.2832 14.3091 13.3041 14.182 13.3513C14.0548 13.3985 13.9386 13.4711 13.8404 13.5646C13.7421 13.6582 13.664 13.7707 13.6106 13.8954C13.5573 14.0201 13.5299 14.1544 13.53 14.29V19.86C13.53 20.1385 13.6406 20.4056 13.8376 20.6025C14.0345 20.7994 14.3015 20.91 14.58 20.91C14.8585 20.91 15.1256 20.7994 15.3225 20.6025C15.5194 20.4056 15.63 20.1385 15.63 19.86V14.36C15.638 14.2157 15.6146 14.0714 15.5614 13.937C15.5082 13.8026 15.4266 13.6813 15.322 13.5815C15.2175 13.4817 15.0925 13.4057 14.9558 13.3589C14.8191 13.312 14.6738 13.2953 14.53 13.31L14.58 13.29ZM11.26 15.43C10.8834 15.4274 10.5167 15.3087 10.21 15.09V22.36C10.21 22.6385 10.3206 22.9056 10.5176 23.1025C10.7145 23.2994 10.9815 23.41 11.26 23.41C11.5385 23.41 11.8056 23.2994 12.0025 23.1025C12.1994 22.9056 12.31 22.6385 12.31 22.36V15.1C11.9928 15.3363 11.6055 15.4595 11.21 15.45L11.26 15.43ZM2.31002 21V0.69001C2.30739 0.442444 2.20719 0.205915 2.03119 0.0317879C1.85519 -0.142339 1.6176 -0.240004 1.37002 -0.23999H1.15002C0.902442 -0.240004 0.664853 -0.142339 0.488853 0.0317879C0.312854 0.205915 0.212656 0.442444 0.210022 0.69001V21C0.210022 21.2493 0.309058 21.4884 0.485342 21.6647C0.661626 21.841 0.900719 21.94 1.15002 21.94H1.37002C1.61933 21.94 1.85842 21.841 2.0347 21.6647C2.21099 21.4884 2.31002 21.2493 2.31002 21V21ZM4.69002 19.52H4.47002C4.22072 19.52 3.98163 19.421 3.80534 19.2447C3.62906 19.0684 3.53002 18.8293 3.53002 18.58V3.11001C3.53266 2.86245 3.63285 2.62591 3.80885 2.45179C3.98485 2.27766 4.22244 2.18 4.47002 2.18001H4.69002C4.9376 2.18 5.17519 2.27766 5.35119 2.45179C5.52719 2.62591 5.62739 2.86245 5.63002 3.11001V18.6C5.63002 18.8493 5.53099 19.0884 5.3547 19.2647C5.17842 19.441 4.93933 19.54 4.69002 19.54V19.52ZM8.00002 17.14H7.77002C7.52337 17.14 7.28682 17.042 7.11242 16.8676C6.93801 16.6932 6.84002 16.4567 6.84002 16.21V5.51001C6.8387 5.38704 6.86178 5.26503 6.90792 5.15104C6.95407 5.03705 7.02236 4.93335 7.10885 4.84593C7.19534 4.75851 7.29831 4.68911 7.4118 4.64175C7.52529 4.59439 7.64705 4.57 7.77002 4.57001H8.00002C8.24759 4.57264 8.48412 4.67284 8.65825 4.84884C8.83238 5.02484 8.93004 5.26243 8.93002 5.51001V16.21C8.93002 16.4567 8.83204 16.6932 8.65763 16.8676C8.48322 17.042 8.24667 17.14 8.00002 17.14V17.14ZM11.31 14.69H11.1C10.8524 14.69 10.6149 14.5924 10.4389 14.4182C10.2629 14.2441 10.1627 14.0076 10.16 13.76V8.00001C10.1518 7.87162 10.17 7.7429 10.2136 7.62184C10.2571 7.50077 10.3251 7.38994 10.4132 7.2962C10.5013 7.20245 10.6077 7.12779 10.7259 7.07685C10.844 7.0259 10.9714 6.99975 11.1 7.00001H11.32C11.5693 7.00001 11.8084 7.09905 11.9847 7.27533C12.161 7.45161 12.26 7.69071 12.26 7.94001V13.74C12.2613 13.8643 12.238 13.9876 12.1914 14.1028C12.1447 14.218 12.0757 14.3228 11.9883 14.4112C11.9008 14.4995 11.7968 14.5697 11.6821 14.6175C11.5674 14.6654 11.4443 14.69 11.32 14.69H11.31ZM14.63 12.54H14.41C14.1607 12.54 13.9216 12.441 13.7453 12.2647C13.5691 12.0884 13.47 11.8493 13.47 11.6V10.11C13.4727 9.86245 13.5729 9.62591 13.7489 9.45179C13.9249 9.27766 14.1624 9.18 14.41 9.18001H14.63C14.8776 9.18 15.1152 9.27766 15.2912 9.45179C15.4672 9.62591 15.5674 9.86245 15.57 10.11V11.6C15.57 11.8476 15.4724 12.0852 15.2982 12.2612C15.1241 12.4372 14.8876 12.5374 14.64 12.54H14.63Z" fill="#4E54C8"/>
</g>
<defs>
<clipPath id="clip0">
<rect width="124" height="28" fill="white"/>
</clipPath>
</defs>
</svg>
